# MagicaVoxel @ Ephtracy

# group
o 

# material
mtllib untitled-0.mtl
usemtl palette

# normals
vn -1 0 0
vn 1 0 0
vn 0 0 1
vn 0 0 -1
vn 0 -1 0
vn 0 1 0

# texcoords
vt 0.533203 0.5
vt 0.541016 0.5
vt 0.548828 0.5

# verts
v -0.4 2 -0.8
v -0.4 2 -1.1
v -0.4 2.1 -0.8
v -0.4 2.1 -1.1
v -0.4 2.3 -0.8
v -0.4 2.3 -1.1
v -0.3 2 -0.7
v -0.3 2 -0.8
v -0.3 2 -1.1
v -0.3 2 -1.2
v -0.3 2.1 -0.7
v -0.3 2.1 -0.8
v -0.3 2.1 -1.1
v -0.3 2.1 -1.2
v -0.3 2.3 -0.7
v -0.3 2.3 -0.8
v -0.3 2.3 -1.1
v -0.3 2.3 -1.2
v -0.3 2.4 -0.8
v -0.3 2.4 -1.1
v 0 2.3 -0.7
v 0 2.3 -0.8
v 0 2.3 -1.1
v 0 2.3 -1.2
v 0 2.4 -0.8
v 0 2.4 -1.1
v 0 3 -0.7
v 0 3 -1.2
v 0.5 2 -0.7
v 0.5 2 -1.2
v 0.5 2.1 -0.7
v 0.5 2.1 -1.2
v 0.5 2.3 -0.7
v 0.5 2.3 -0.8
v 0.5 2.3 -1.1
v 0.5 2.3 -1.2
v 0.5 2.4 -0.8
v 0.5 2.4 -1.1
v 0.5 3 -0.7
v 0.5 3 -1.2
v -0.3 2 -0.7
v -0.3 2.1 -0.7
v -0.3 2.3 -0.7
v 0 2.3 -0.7
v 0 3 -0.7
v 0.1 2.2 -0.7
v 0.1 2.3 -0.7
v 0.4 2.2 -0.7
v 0.4 2.3 -0.7
v 0.5 2 -0.7
v 0.5 2.1 -0.7
v 0.5 2.3 -0.7
v 0.5 3 -0.7
v -0.4 2 -0.8
v -0.4 2.1 -0.8
v -0.4 2.3 -0.8
v -0.3 2 -0.8
v -0.3 2.1 -0.8
v -0.3 2.3 -0.8
v -0.3 2.4 -0.8
v -0.2 2.3 -0.8
v -0.2 2.4 -0.8
v 0 2.3 -0.8
v 0 2.4 -0.8
v -0.4 2 -1.1
v -0.4 2.1 -1.1
v -0.4 2.3 -1.1
v -0.3 2 -1.1
v -0.3 2.1 -1.1
v -0.3 2.3 -1.1
v -0.3 2.4 -1.1
v -0.2 2.3 -1.1
v -0.2 2.4 -1.1
v 0 2.3 -1.1
v 0 2.4 -1.1
v -0.3 2 -1.2
v -0.3 2.1 -1.2
v -0.3 2.3 -1.2
v 0 2.3 -1.2
v 0 3 -1.2
v 0.1 2.2 -1.2
v 0.1 2.3 -1.2
v 0.4 2.2 -1.2
v 0.4 2.3 -1.2
v 0.5 2 -1.2
v 0.5 2.1 -1.2
v 0.5 2.3 -1.2
v 0.5 3 -1.2
v -0.3 2 -0.7
v 0.5 2 -0.7
v -0.4 2 -0.8
v -0.3 2 -0.8
v -0.4 2 -1.1
v -0.3 2 -1.1
v -0.3 2 -1.2
v 0.5 2 -1.2
v -0.3 2.3 -0.7
v 0 2.3 -0.7
v -0.4 2.3 -0.8
v -0.3 2.3 -0.8
v -0.2 2.3 -0.8
v 0 2.3 -0.8
v -0.4 2.3 -1.1
v -0.3 2.3 -1.1
v -0.2 2.3 -1.1
v 0 2.3 -1.1
v -0.3 2.3 -1.2
v 0 2.3 -1.2
v -0.3 2.4 -0.8
v -0.2 2.4 -0.8
v 0 2.4 -0.8
v -0.3 2.4 -1.1
v -0.2 2.4 -1.1
v 0 2.4 -1.1
v 0 3 -0.7
v 0.5 3 -0.7
v 0 3 -1.2
v 0.5 3 -1.2

# faces
f 3/2/1 2/2/1 1/2/1
f 4/2/1 2/2/1 3/2/1
f 5/3/1 4/3/1 3/3/1
f 6/3/1 4/3/1 5/3/1
f 11/2/1 8/2/1 7/2/1
f 12/2/1 8/2/1 11/2/1
f 13/2/1 10/2/1 9/2/1
f 14/2/1 10/2/1 13/2/1
f 15/3/1 12/3/1 11/3/1
f 16/3/1 12/3/1 15/3/1
f 17/3/1 14/3/1 13/3/1
f 18/3/1 14/3/1 17/3/1
f 19/2/1 17/2/1 16/2/1
f 20/2/1 17/2/1 19/2/1
f 25/1/1 22/1/1 21/1/1
f 26/1/1 24/1/1 23/1/1
f 27/1/1 25/1/1 21/1/1
f 27/1/1 26/1/1 25/1/1
f 28/1/1 24/1/1 26/1/1
f 28/1/1 26/1/1 27/1/1
f 29/2/2 30/2/2 31/2/2
f 31/2/2 30/2/2 32/2/2
f 31/3/2 32/3/2 33/3/2
f 33/3/2 32/3/2 34/3/2
f 34/3/2 32/3/2 35/3/2
f 35/3/2 32/3/2 36/3/2
f 33/1/2 34/1/2 37/1/2
f 34/3/2 35/3/2 37/3/2
f 35/1/2 36/1/2 38/1/2
f 37/3/2 35/3/2 38/3/2
f 33/1/2 37/1/2 39/1/2
f 37/1/2 38/1/2 39/1/2
f 38/1/2 36/1/2 40/1/2
f 39/1/2 38/1/2 40/1/2
f 44/3/3 43/3/3 42/3/3
f 46/3/3 44/3/3 42/3/3
f 47/1/3 45/1/3 44/1/3
f 47/3/3 44/3/3 46/3/3
f 48/3/3 46/3/3 42/3/3
f 48/1/3 47/1/3 46/1/3
f 49/1/3 45/1/3 47/1/3
f 49/1/3 47/1/3 48/1/3
f 50/2/3 42/2/3 41/2/3
f 51/3/3 48/3/3 42/3/3
f 51/2/3 42/2/3 50/2/3
f 51/3/3 49/3/3 48/3/3
f 52/1/3 45/1/3 49/1/3
f 52/3/3 49/3/3 51/3/3
f 53/1/3 45/1/3 52/1/3
f 57/2/3 55/2/3 54/2/3
f 58/3/3 56/3/3 55/3/3
f 58/2/3 55/2/3 57/2/3
f 59/3/3 56/3/3 58/3/3
f 61/2/3 60/2/3 59/2/3
f 62/2/3 60/2/3 61/2/3
f 63/3/3 62/3/3 61/3/3
f 64/3/3 62/3/3 63/3/3
f 65/2/4 66/2/4 68/2/4
f 66/3/4 67/3/4 69/3/4
f 68/2/4 66/2/4 69/2/4
f 69/3/4 67/3/4 70/3/4
f 70/2/4 71/2/4 72/2/4
f 72/2/4 71/2/4 73/2/4
f 72/3/4 73/3/4 74/3/4
f 74/3/4 73/3/4 75/3/4
f 77/3/4 78/3/4 79/3/4
f 77/3/4 79/3/4 81/3/4
f 79/1/4 80/1/4 82/1/4
f 81/3/4 79/3/4 82/3/4
f 77/3/4 81/3/4 83/3/4
f 81/1/4 82/1/4 83/1/4
f 82/1/4 80/1/4 84/1/4
f 83/1/4 82/1/4 84/1/4
f 76/2/4 77/2/4 85/2/4
f 77/3/4 83/3/4 86/3/4
f 85/2/4 77/2/4 86/2/4
f 83/3/4 84/3/4 86/3/4
f 84/1/4 80/1/4 87/1/4
f 86/3/4 84/3/4 87/3/4
f 87/1/4 80/1/4 88/1/4
f 92/2/5 90/2/5 89/2/5
f 93/2/5 92/2/5 91/2/5
f 94/2/5 90/2/5 92/2/5
f 94/2/5 92/2/5 93/2/5
f 95/2/5 90/2/5 94/2/5
f 96/2/5 90/2/5 95/2/5
f 97/3/6 98/3/6 100/3/6
f 100/3/6 98/3/6 101/3/6
f 101/3/6 98/3/6 102/3/6
f 99/3/6 100/3/6 103/3/6
f 103/3/6 100/3/6 104/3/6
f 105/3/6 106/3/6 107/3/6
f 104/3/6 105/3/6 107/3/6
f 107/3/6 106/3/6 108/3/6
f 109/2/6 110/2/6 112/2/6
f 110/3/6 111/3/6 113/3/6
f 112/2/6 110/2/6 113/2/6
f 113/3/6 111/3/6 114/3/6
f 115/1/6 116/1/6 117/1/6
f 117/1/6 116/1/6 118/1/6
